<svg width="40" height="40" viewBox="0 0 40 40" fill="none" xmlns="http://www.w3.org/2000/svg">
<path d="M33.1036 40H6.89704C5.49134 40 4.34772 38.8564 4.34772 37.4507V7.23477H35.6529V37.4507C35.6529 38.8564 34.5093 40 33.1036 40ZM5.36792 8.2549V37.4506C5.36792 38.2938 6.05389 38.9797 6.89704 38.9797H33.1036C33.9468 38.9797 34.6328 38.2938 34.6328 37.4506V8.2549H5.36792Z" fill="black"/>
<path d="M37.1079 6.19227H2.89203V3.93325C2.89203 2.52789 4.03552 1.38454 5.44101 1.38454H18.4336C18.636 0.578043 19.2762 0 20.0433 0C20.8112 0 21.4518 0.577908 21.6538 1.38454H34.5593C35.9646 1.38454 37.1079 2.52789 37.1079 3.93325V6.19227ZM3.91223 5.17207H36.0877V3.93325C36.0877 3.09044 35.402 2.40474 34.5592 2.40474H20.7098L20.6998 1.90485C20.69 1.41708 20.3956 1.0202 20.0433 1.0202C19.6917 1.0202 19.3975 1.41722 19.3874 1.90518L19.377 2.40474H5.44101C4.59807 2.40474 3.91223 3.09037 3.91223 3.93325V5.17207Z" fill="black"/>
<path d="M9.74325 36.8031C8.66875 36.8031 7.79462 35.9288 7.79462 34.8543V13.2055C7.79462 12.1309 8.66875 11.2567 9.74325 11.2567C10.8178 11.2567 11.692 12.1309 11.692 13.2055V34.8544C11.692 35.9289 10.8178 36.8031 9.74325 36.8031ZM9.74325 12.2769C9.2313 12.2769 8.81481 12.6934 8.81481 13.2055V34.8544C8.81481 35.3664 9.23137 35.783 9.74325 35.783C10.2553 35.783 10.6718 35.3663 10.6718 34.8544V13.2055C10.6718 12.6934 10.2553 12.2769 9.74325 12.2769Z" fill="black"/>
<path d="M16.3775 36.8031C15.3029 36.8031 14.4288 35.9288 14.4288 34.8543V13.2055C14.4288 12.1309 15.303 11.2567 16.3775 11.2567C17.452 11.2567 18.3262 12.1309 18.3262 13.2055V34.8544C18.3262 35.9289 17.452 36.8031 16.3775 36.8031ZM16.3775 12.2769C15.8655 12.2769 15.449 12.6934 15.449 13.2055V34.8544C15.449 35.3664 15.8655 35.783 16.3775 35.783C16.8894 35.783 17.306 35.3663 17.306 34.8544V13.2055C17.306 12.6934 16.8895 12.2769 16.3775 12.2769Z" fill="black"/>
<path d="M23.0116 36.8031C21.9371 36.8031 21.0628 35.9288 21.0628 34.8543V13.2055C21.0628 12.1309 21.9371 11.2567 23.0116 11.2567C24.0861 11.2567 24.9604 12.1309 24.9604 13.2055V34.8544C24.9604 35.9289 24.0862 36.8031 23.0116 36.8031ZM23.0116 12.2769C22.4996 12.2769 22.083 12.6934 22.083 13.2055V34.8544C22.083 35.3664 22.4996 35.783 23.0116 35.783C23.5235 35.783 23.9402 35.3663 23.9402 34.8544V13.2055C23.9401 12.6934 23.5236 12.2769 23.0116 12.2769Z" fill="black"/>
<path d="M29.6458 36.8031C28.5709 36.8031 27.6965 35.9288 27.6965 34.8543V13.2055C27.6965 12.1309 28.5709 11.2567 29.6458 11.2567C30.7203 11.2567 31.5944 12.1309 31.5944 13.2055V34.8544C31.5944 35.9289 30.7203 36.8031 29.6458 36.8031ZM29.6458 12.2769C29.1334 12.2769 28.7167 12.6934 28.7167 13.2055V34.8544C28.7167 35.3664 29.1334 35.783 29.6458 35.783C30.1578 35.783 30.5742 35.3663 30.5742 34.8544V13.2055C30.5742 12.6934 30.1578 12.2769 29.6458 12.2769Z" fill="black"/>
</svg>
